<?xml version="1.0" encoding="utf-8" standalone="no"?>
<!DOCTYPE svg PUBLIC "-//W3C//DTD SVG 1.1//EN"
  "http://www.w3.org/Graphics/SVG/1.1/DTD/svg11.dtd">
<svg xmlns:xlink="http://www.w3.org/1999/xlink" width="336.402425pt" height="216.120513pt" viewBox="0 0 336.402425 216.120513" xmlns="http://www.w3.org/2000/svg" version="1.1">
 <metadata>
  <rdf:RDF xmlns:dc="http://purl.org/dc/elements/1.1/" xmlns:cc="http://creativecommons.org/ns#" xmlns:rdf="http://www.w3.org/1999/02/22-rdf-syntax-ns#">
   <cc:Work>
    <dc:type rdf:resource="http://purl.org/dc/dcmitype/StillImage"/>
    <dc:date>2024-07-04T19:10:21.466633</dc:date>
    <dc:format>image/svg+xml</dc:format>
    <dc:creator>
     <cc:Agent>
      <dc:title>Matplotlib v3.6.0, https://matplotlib.org/</dc:title>
     </cc:Agent>
    </dc:creator>
   </cc:Work>
  </rdf:RDF>
 </metadata>
 <defs>
  <style type="text/css">*{stroke-linejoin: round; stroke-linecap: butt}</style>
 </defs>
 <g id="figure_1">
  <g id="patch_1">
   <path d="M 0 216.120513 
L 336.402425 216.120513 
L 336.402425 0 
L 0 0 
z
" style="fill: #ffffff"/>
  </g>
  <g id="axes_1">
   <g id="patch_2">
    <path d="M 50.202425 173.52 
L 329.202425 173.52 
L 329.202425 7.2 
L 50.202425 7.2 
z
" style="fill: #ffffff"/>
   </g>
   <g id="line2d_1">
    <path d="M 62.884243 164.44815 
L 316.520607 14.76 
L 316.520607 14.76 
" clip-path="url(#pa21a95544c)" style="fill: none; stroke-dasharray: 7.4,3.2; stroke-dashoffset: 0; stroke: #d3d3d3; stroke-width: 2"/>
   </g>
   <g id="matplotlib.axis_1">
    <g id="xtick_1">
     <g id="text_1">
      <!-- 0.0 -->
      <g style="fill: #484848" transform="translate(50.968272 190.512613) scale(0.1144 -0.1144)">
       <defs>
        <path id="Verdana-30" d="M 3647 2328 
Q 3647 1075 3255 489 
Q 2863 -97 2038 -97 
Q 1200 -97 814 497 
Q 428 1091 428 2322 
Q 428 3563 818 4155 
Q 1209 4747 2038 4747 
Q 2875 4747 3261 4145 
Q 3647 3544 3647 2328 
z
M 2825 909 
Q 2934 1163 2973 1505 
Q 3013 1847 3013 2328 
Q 3013 2803 2973 3153 
Q 2934 3503 2822 3747 
Q 2713 3988 2523 4109 
Q 2334 4231 2038 4231 
Q 1744 4231 1551 4109 
Q 1359 3988 1247 3741 
Q 1141 3509 1102 3137 
Q 1063 2766 1063 2322 
Q 1063 1834 1097 1506 
Q 1131 1178 1244 919 
Q 1347 675 1536 547 
Q 1725 419 2038 419 
Q 2331 419 2525 541 
Q 2719 663 2825 909 
z
" transform="scale(0.015625)"/>
        <path id="Verdana-2e" d="M 1538 0 
L 791 0 
L 791 891 
L 1538 891 
L 1538 0 
z
" transform="scale(0.015625)"/>
       </defs>
       <use xlink:href="#Verdana-30"/>
       <use xlink:href="#Verdana-2e" x="63.574219"/>
       <use xlink:href="#Verdana-30" x="99.951172"/>
      </g>
     </g>
    </g>
    <g id="xtick_2">
     <g id="text_2">
      <!-- 0.2 -->
      <g style="fill: #484848" transform="translate(102.207942 190.512613) scale(0.1144 -0.1144)">
       <defs>
        <path id="Verdana-32" d="M 3653 0 
L 503 0 
L 503 653 
Q 831 934 1161 1215 
Q 1491 1497 1775 1775 
Q 2375 2356 2597 2698 
Q 2819 3041 2819 3438 
Q 2819 3800 2580 4004 
Q 2341 4209 1913 4209 
Q 1628 4209 1297 4109 
Q 966 4009 650 3803 
L 619 3803 
L 619 4459 
Q 841 4569 1211 4659 
Q 1581 4750 1928 4750 
Q 2644 4750 3050 4404 
Q 3456 4059 3456 3469 
Q 3456 3203 3389 2973 
Q 3322 2744 3191 2538 
Q 3069 2344 2905 2156 
Q 2741 1969 2506 1741 
Q 2172 1413 1815 1105 
Q 1459 797 1150 534 
L 3653 534 
L 3653 0 
z
" transform="scale(0.015625)"/>
       </defs>
       <use xlink:href="#Verdana-30"/>
       <use xlink:href="#Verdana-2e" x="63.574219"/>
       <use xlink:href="#Verdana-32" x="99.951172"/>
      </g>
     </g>
    </g>
    <g id="xtick_3">
     <g id="text_3">
      <!-- 0.4 -->
      <g style="fill: #484848" transform="translate(153.447611 190.512613) scale(0.1144 -0.1144)">
       <defs>
        <path id="Verdana-34" d="M 3759 1309 
L 3069 1309 
L 3069 0 
L 2469 0 
L 2469 1309 
L 241 1309 
L 241 2028 
L 2494 4653 
L 3069 4653 
L 3069 1809 
L 3759 1809 
L 3759 1309 
z
M 2469 1809 
L 2469 3909 
L 666 1809 
L 2469 1809 
z
" transform="scale(0.015625)"/>
       </defs>
       <use xlink:href="#Verdana-30"/>
       <use xlink:href="#Verdana-2e" x="63.574219"/>
       <use xlink:href="#Verdana-34" x="99.951172"/>
      </g>
     </g>
    </g>
    <g id="xtick_4">
     <g id="text_4">
      <!-- 0.6 -->
      <g style="fill: #484848" transform="translate(204.68728 190.512613) scale(0.1144 -0.1144)">
       <defs>
        <path id="Verdana-36" d="M 3722 1509 
Q 3722 800 3255 351 
Q 2788 -97 2109 -97 
Q 1766 -97 1484 9 
Q 1203 116 988 325 
Q 719 584 573 1012 
Q 428 1441 428 2044 
Q 428 2663 561 3141 
Q 694 3619 984 3991 
Q 1259 4344 1693 4542 
Q 2128 4741 2706 4741 
Q 2891 4741 3016 4725 
Q 3141 4709 3269 4669 
L 3269 4072 
L 3238 4072 
Q 3150 4119 2973 4161 
Q 2797 4203 2613 4203 
Q 1941 4203 1541 3783 
Q 1141 3363 1075 2647 
Q 1338 2806 1592 2889 
Q 1847 2972 2181 2972 
Q 2478 2972 2704 2917 
Q 2931 2863 3169 2697 
Q 3444 2506 3583 2215 
Q 3722 1925 3722 1509 
z
M 3088 1484 
Q 3088 1775 3002 1965 
Q 2916 2156 2719 2297 
Q 2575 2397 2400 2428 
Q 2225 2459 2034 2459 
Q 1769 2459 1541 2396 
Q 1313 2334 1072 2203 
Q 1066 2134 1062 2070 
Q 1059 2006 1059 1909 
Q 1059 1416 1161 1130 
Q 1263 844 1441 678 
Q 1584 541 1751 477 
Q 1919 413 2116 413 
Q 2569 413 2828 689 
Q 3088 966 3088 1484 
z
" transform="scale(0.015625)"/>
       </defs>
       <use xlink:href="#Verdana-30"/>
       <use xlink:href="#Verdana-2e" x="63.574219"/>
       <use xlink:href="#Verdana-36" x="99.951172"/>
      </g>
     </g>
    </g>
    <g id="xtick_5">
     <g id="text_5">
      <!-- 0.8 -->
      <g style="fill: #484848" transform="translate(255.92695 190.512613) scale(0.1144 -0.1144)">
       <defs>
        <path id="Verdana-38" d="M 3688 1297 
Q 3688 694 3217 294 
Q 2747 -106 2034 -106 
Q 1278 -106 829 284 
Q 381 675 381 1284 
Q 381 1672 606 1986 
Q 831 2300 1241 2484 
L 1241 2503 
Q 866 2703 686 2940 
Q 506 3178 506 3534 
Q 506 4059 937 4409 
Q 1369 4759 2034 4759 
Q 2731 4759 3147 4425 
Q 3563 4091 3563 3575 
Q 3563 3259 3366 2954 
Q 3169 2650 2788 2478 
L 2788 2459 
Q 3225 2272 3456 1997 
Q 3688 1722 3688 1297 
z
M 2947 3569 
Q 2947 3903 2689 4101 
Q 2431 4300 2031 4300 
Q 1638 4300 1386 4112 
Q 1134 3925 1134 3606 
Q 1134 3381 1261 3217 
Q 1388 3053 1644 2925 
Q 1759 2869 1976 2778 
Q 2194 2688 2400 2628 
Q 2709 2834 2828 3056 
Q 2947 3278 2947 3569 
z
M 3044 1238 
Q 3044 1525 2917 1698 
Q 2791 1872 2422 2047 
Q 2275 2116 2100 2175 
Q 1925 2234 1634 2341 
Q 1353 2188 1183 1925 
Q 1013 1663 1013 1331 
Q 1013 909 1303 634 
Q 1594 359 2041 359 
Q 2497 359 2770 593 
Q 3044 828 3044 1238 
z
" transform="scale(0.015625)"/>
       </defs>
       <use xlink:href="#Verdana-30"/>
       <use xlink:href="#Verdana-2e" x="63.574219"/>
       <use xlink:href="#Verdana-38" x="99.951172"/>
      </g>
     </g>
    </g>
    <g id="xtick_6">
     <g id="text_6">
      <!-- 1.0 -->
      <g style="fill: #484848" transform="translate(307.166619 190.512613) scale(0.1144 -0.1144)">
       <defs>
        <path id="Verdana-31" d="M 3388 0 
L 869 0 
L 869 475 
L 1838 475 
L 1838 3594 
L 869 3594 
L 869 4019 
Q 1066 4019 1291 4051 
Q 1516 4084 1631 4147 
Q 1775 4225 1858 4345 
Q 1941 4466 1953 4669 
L 2438 4669 
L 2438 475 
L 3388 475 
L 3388 0 
z
" transform="scale(0.015625)"/>
       </defs>
       <use xlink:href="#Verdana-31"/>
       <use xlink:href="#Verdana-2e" x="63.574219"/>
       <use xlink:href="#Verdana-30" x="99.951172"/>
      </g>
     </g>
    </g>
    <g id="text_7">
     <!-- Baseline probability, $p_i$ -->
     <g style="fill: #484848" transform="translate(50.202425 206.299712) scale(0.1248 -0.1248)">
      <defs>
       <path id="Verdana-42" d="M 4134 1431 
Q 4134 1084 4003 818 
Q 3872 553 3650 381 
Q 3388 175 3073 87 
Q 2759 0 2275 0 
L 625 0 
L 625 4653 
L 2003 4653 
Q 2513 4653 2766 4615 
Q 3019 4578 3250 4459 
Q 3506 4325 3622 4114 
Q 3738 3903 3738 3609 
Q 3738 3278 3569 3045 
Q 3400 2813 3119 2672 
L 3119 2647 
Q 3591 2550 3862 2233 
Q 4134 1916 4134 1431 
z
M 3094 3528 
Q 3094 3697 3037 3812 
Q 2981 3928 2856 4000 
Q 2709 4084 2500 4104 
Q 2291 4125 1981 4125 
L 1244 4125 
L 1244 2781 
L 2044 2781 
Q 2334 2781 2506 2811 
Q 2678 2841 2825 2934 
Q 2972 3028 3033 3176 
Q 3094 3325 3094 3528 
z
M 3491 1406 
Q 3491 1688 3406 1853 
Q 3322 2019 3100 2134 
Q 2950 2213 2736 2236 
Q 2522 2259 2216 2259 
L 1244 2259 
L 1244 528 
L 2063 528 
Q 2469 528 2728 570 
Q 2988 613 3153 725 
Q 3328 847 3409 1003 
Q 3491 1159 3491 1406 
z
" transform="scale(0.015625)"/>
       <path id="Verdana-61" d="M 3291 0 
L 2706 0 
L 2706 372 
Q 2628 319 2495 223 
Q 2363 128 2238 72 
Q 2091 0 1900 -48 
Q 1709 -97 1453 -97 
Q 981 -97 653 215 
Q 325 528 325 1013 
Q 325 1409 495 1654 
Q 666 1900 981 2041 
Q 1300 2181 1747 2231 
Q 2194 2281 2706 2306 
L 2706 2397 
Q 2706 2597 2636 2728 
Q 2566 2859 2434 2934 
Q 2309 3006 2134 3031 
Q 1959 3056 1769 3056 
Q 1538 3056 1253 2995 
Q 969 2934 666 2819 
L 634 2819 
L 634 3416 
Q 806 3463 1131 3519 
Q 1456 3575 1772 3575 
Q 2141 3575 2414 3514 
Q 2688 3453 2888 3306 
Q 3084 3163 3187 2934 
Q 3291 2706 3291 2369 
L 3291 0 
z
M 2706 859 
L 2706 1831 
Q 2438 1816 2073 1784 
Q 1709 1753 1497 1694 
Q 1244 1622 1087 1470 
Q 931 1319 931 1053 
Q 931 753 1112 601 
Q 1294 450 1666 450 
Q 1975 450 2231 570 
Q 2488 691 2706 859 
z
" transform="scale(0.015625)"/>
       <path id="Verdana-73" d="M 3072 1006 
Q 3072 528 2676 222 
Q 2281 -84 1597 -84 
Q 1209 -84 886 8 
Q 563 100 344 209 
L 344 869 
L 375 869 
Q 653 659 993 536 
Q 1334 413 1647 413 
Q 2034 413 2253 538 
Q 2472 663 2472 931 
Q 2472 1138 2353 1244 
Q 2234 1350 1897 1425 
Q 1772 1453 1570 1490 
Q 1369 1528 1203 1572 
Q 744 1694 551 1930 
Q 359 2166 359 2509 
Q 359 2725 448 2915 
Q 538 3106 719 3256 
Q 894 3403 1164 3489 
Q 1434 3575 1769 3575 
Q 2081 3575 2401 3498 
Q 2722 3422 2934 3313 
L 2934 2684 
L 2903 2684 
Q 2678 2850 2356 2964 
Q 2034 3078 1725 3078 
Q 1403 3078 1181 2954 
Q 959 2831 959 2588 
Q 959 2372 1094 2263 
Q 1225 2153 1519 2084 
Q 1681 2047 1882 2009 
Q 2084 1972 2219 1941 
Q 2628 1847 2850 1619 
Q 3072 1388 3072 1006 
z
" transform="scale(0.015625)"/>
       <path id="Verdana-65" d="M 3500 1684 
L 928 1684 
Q 928 1363 1025 1123 
Q 1122 884 1291 731 
Q 1453 581 1676 506 
Q 1900 431 2169 431 
Q 2525 431 2886 573 
Q 3247 716 3400 853 
L 3431 853 
L 3431 213 
Q 3134 88 2825 3 
Q 2516 -81 2175 -81 
Q 1306 -81 818 389 
Q 331 859 331 1725 
Q 331 2581 798 3084 
Q 1266 3588 2028 3588 
Q 2734 3588 3117 3175 
Q 3500 2763 3500 2003 
L 3500 1684 
z
M 2928 2134 
Q 2925 2597 2695 2850 
Q 2466 3103 1997 3103 
Q 1525 3103 1245 2825 
Q 966 2547 928 2134 
L 2928 2134 
z
" transform="scale(0.015625)"/>
       <path id="Verdana-6c" d="M 1172 0 
L 584 0 
L 584 4863 
L 1172 4863 
L 1172 0 
z
" transform="scale(0.015625)"/>
       <path id="Verdana-69" d="M 1209 4075 
L 547 4075 
L 547 4684 
L 1209 4684 
L 1209 4075 
z
M 1172 0 
L 584 0 
L 584 3491 
L 1172 3491 
L 1172 0 
z
" transform="scale(0.015625)"/>
       <path id="Verdana-6e" d="M 3497 0 
L 2909 0 
L 2909 1988 
Q 2909 2228 2881 2439 
Q 2853 2650 2778 2769 
Q 2700 2900 2553 2964 
Q 2406 3028 2172 3028 
Q 1931 3028 1668 2909 
Q 1406 2791 1166 2606 
L 1166 0 
L 578 0 
L 578 3491 
L 1166 3491 
L 1166 3103 
Q 1441 3331 1734 3459 
Q 2028 3588 2338 3588 
Q 2903 3588 3200 3247 
Q 3497 2906 3497 2266 
L 3497 0 
z
" transform="scale(0.015625)"/>
       <path id="Verdana-20" transform="scale(0.015625)"/>
       <path id="Verdana-70" d="M 3650 1788 
Q 3650 1363 3528 1011 
Q 3406 659 3184 416 
Q 2978 184 2698 57 
Q 2419 -69 2106 -69 
Q 1834 -69 1614 -9 
Q 1394 50 1166 175 
L 1166 -1288 
L 578 -1288 
L 578 3491 
L 1166 3491 
L 1166 3125 
Q 1400 3322 1692 3455 
Q 1984 3588 2316 3588 
Q 2947 3588 3298 3111 
Q 3650 2634 3650 1788 
z
M 3044 1772 
Q 3044 2403 2828 2715 
Q 2613 3028 2166 3028 
Q 1913 3028 1656 2918 
Q 1400 2809 1166 2631 
L 1166 653 
Q 1416 541 1595 500 
Q 1775 459 2003 459 
Q 2494 459 2769 790 
Q 3044 1122 3044 1772 
z
" transform="scale(0.015625)"/>
       <path id="Verdana-72" d="M 2756 2850 
L 2725 2850 
Q 2594 2881 2470 2895 
Q 2347 2909 2178 2909 
Q 1906 2909 1653 2789 
Q 1400 2669 1166 2478 
L 1166 0 
L 578 0 
L 578 3491 
L 1166 3491 
L 1166 2975 
Q 1516 3256 1783 3373 
Q 2050 3491 2328 3491 
Q 2481 3491 2550 3483 
Q 2619 3475 2756 3453 
L 2756 2850 
z
" transform="scale(0.015625)"/>
       <path id="Verdana-6f" d="M 3553 1744 
Q 3553 891 3115 397 
Q 2678 -97 1944 -97 
Q 1203 -97 767 397 
Q 331 891 331 1744 
Q 331 2597 767 3092 
Q 1203 3588 1944 3588 
Q 2678 3588 3115 3092 
Q 3553 2597 3553 1744 
z
M 2947 1744 
Q 2947 2422 2681 2751 
Q 2416 3081 1944 3081 
Q 1466 3081 1202 2751 
Q 938 2422 938 1744 
Q 938 1088 1203 748 
Q 1469 409 1944 409 
Q 2413 409 2680 745 
Q 2947 1081 2947 1744 
z
" transform="scale(0.015625)"/>
       <path id="Verdana-62" d="M 3650 1772 
Q 3650 1334 3526 984 
Q 3403 634 3194 397 
Q 2972 150 2706 26 
Q 2441 -97 2122 -97 
Q 1825 -97 1603 -26 
Q 1381 44 1166 163 
L 1128 0 
L 578 0 
L 578 4863 
L 1166 4863 
L 1166 3125 
Q 1413 3328 1691 3458 
Q 1969 3588 2316 3588 
Q 2934 3588 3292 3113 
Q 3650 2638 3650 1772 
z
M 3044 1756 
Q 3044 2381 2837 2704 
Q 2631 3028 2172 3028 
Q 1916 3028 1653 2917 
Q 1391 2806 1166 2631 
L 1166 631 
Q 1416 519 1595 475 
Q 1775 431 2003 431 
Q 2491 431 2767 751 
Q 3044 1072 3044 1756 
z
" transform="scale(0.015625)"/>
       <path id="Verdana-74" d="M 2391 31 
Q 2225 -13 2029 -41 
Q 1834 -69 1681 -69 
Q 1147 -69 869 218 
Q 591 506 591 1141 
L 591 2997 
L 194 2997 
L 194 3491 
L 591 3491 
L 591 4494 
L 1178 4494 
L 1178 3491 
L 2391 3491 
L 2391 2997 
L 1178 2997 
L 1178 1406 
Q 1178 1131 1190 976 
Q 1203 822 1278 688 
Q 1347 563 1467 505 
Q 1588 447 1834 447 
Q 1978 447 2134 489 
Q 2291 531 2359 559 
L 2391 559 
L 2391 31 
z
" transform="scale(0.015625)"/>
       <path id="Verdana-79" d="M 3597 3491 
L 1559 -1288 
L 931 -1288 
L 1581 169 
L 191 3491 
L 828 3491 
L 1900 903 
L 2981 3491 
L 3597 3491 
z
" transform="scale(0.015625)"/>
       <path id="Verdana-2c" d="M 1797 891 
L 916 -1156 
L 459 -1156 
L 1003 891 
L 1797 891 
z
" transform="scale(0.015625)"/>
       <path id="DejaVuSans-Oblique-70" d="M 3175 2156 
Q 3175 2616 2975 2859 
Q 2775 3103 2400 3103 
Q 2144 3103 1911 2972 
Q 1678 2841 1497 2591 
Q 1319 2344 1212 1994 
Q 1106 1644 1106 1300 
Q 1106 863 1306 627 
Q 1506 391 1875 391 
Q 2147 391 2380 519 
Q 2613 647 2778 891 
Q 2956 1147 3065 1494 
Q 3175 1841 3175 2156 
z
M 1394 2969 
Q 1625 3272 1939 3428 
Q 2253 3584 2638 3584 
Q 3175 3584 3472 3232 
Q 3769 2881 3769 2247 
Q 3769 1728 3584 1258 
Q 3400 788 3053 416 
Q 2822 169 2531 39 
Q 2241 -91 1919 -91 
Q 1547 -91 1294 64 
Q 1041 219 916 525 
L 556 -1331 
L -19 -1331 
L 922 3500 
L 1497 3500 
L 1394 2969 
z
" transform="scale(0.015625)"/>
       <path id="DejaVuSans-Oblique-69" d="M 1172 4863 
L 1747 4863 
L 1606 4134 
L 1031 4134 
L 1172 4863 
z
M 909 3500 
L 1484 3500 
L 800 0 
L 225 0 
L 909 3500 
z
" transform="scale(0.015625)"/>
      </defs>
      <use xlink:href="#Verdana-42" transform="translate(0 0.015625)"/>
      <use xlink:href="#Verdana-61" transform="translate(68.554688 0.015625)"/>
      <use xlink:href="#Verdana-73" transform="translate(128.613281 0.015625)"/>
      <use xlink:href="#Verdana-65" transform="translate(180.712891 0.015625)"/>
      <use xlink:href="#Verdana-6c" transform="translate(240.283203 0.015625)"/>
      <use xlink:href="#Verdana-69" transform="translate(267.724609 0.015625)"/>
      <use xlink:href="#Verdana-6e" transform="translate(295.166016 0.015625)"/>
      <use xlink:href="#Verdana-65" transform="translate(358.447266 0.015625)"/>
      <use xlink:href="#Verdana-20" transform="translate(418.017578 0.015625)"/>
      <use xlink:href="#Verdana-70" transform="translate(453.173828 0.015625)"/>
      <use xlink:href="#Verdana-72" transform="translate(515.478516 0.015625)"/>
      <use xlink:href="#Verdana-6f" transform="translate(558.154297 0.015625)"/>
      <use xlink:href="#Verdana-62" transform="translate(618.847656 0.015625)"/>
      <use xlink:href="#Verdana-61" transform="translate(681.152344 0.015625)"/>
      <use xlink:href="#Verdana-62" transform="translate(741.210938 0.015625)"/>
      <use xlink:href="#Verdana-69" transform="translate(803.515625 0.015625)"/>
      <use xlink:href="#Verdana-6c" transform="translate(830.957031 0.015625)"/>
      <use xlink:href="#Verdana-69" transform="translate(858.398438 0.015625)"/>
      <use xlink:href="#Verdana-74" transform="translate(885.839844 0.015625)"/>
      <use xlink:href="#Verdana-79" transform="translate(925.244141 0.015625)"/>
      <use xlink:href="#Verdana-2c" transform="translate(984.423828 0.015625)"/>
      <use xlink:href="#Verdana-20" transform="translate(1020.800781 0.015625)"/>
      <use xlink:href="#DejaVuSans-Oblique-70" transform="translate(1055.957031 0.015625)"/>
      <use xlink:href="#DejaVuSans-Oblique-69" transform="translate(1119.433594 -16.390625) scale(0.7)"/>
     </g>
    </g>
   </g>
   <g id="matplotlib.axis_2">
    <g id="ytick_1">
     <g id="text_8">
      <!-- 0.0 -->
      <g style="fill: #484848" transform="translate(23.19445 170.306457) scale(0.1144 -0.1144)">
       <use xlink:href="#Verdana-30"/>
       <use xlink:href="#Verdana-2e" x="63.574219"/>
       <use xlink:href="#Verdana-30" x="99.951172"/>
      </g>
     </g>
    </g>
    <g id="ytick_2">
     <g id="text_9">
      <!-- 0.2 -->
      <g style="fill: #484848" transform="translate(23.19445 140.066427) scale(0.1144 -0.1144)">
       <use xlink:href="#Verdana-30"/>
       <use xlink:href="#Verdana-2e" x="63.574219"/>
       <use xlink:href="#Verdana-32" x="99.951172"/>
      </g>
     </g>
    </g>
    <g id="ytick_3">
     <g id="text_10">
      <!-- 0.4 -->
      <g style="fill: #484848" transform="translate(23.19445 109.826397) scale(0.1144 -0.1144)">
       <use xlink:href="#Verdana-30"/>
       <use xlink:href="#Verdana-2e" x="63.574219"/>
       <use xlink:href="#Verdana-34" x="99.951172"/>
      </g>
     </g>
    </g>
    <g id="ytick_4">
     <g id="text_11">
      <!-- 0.6 -->
      <g style="fill: #484848" transform="translate(23.19445 79.586367) scale(0.1144 -0.1144)">
       <use xlink:href="#Verdana-30"/>
       <use xlink:href="#Verdana-2e" x="63.574219"/>
       <use xlink:href="#Verdana-36" x="99.951172"/>
      </g>
     </g>
    </g>
    <g id="ytick_5">
     <g id="text_12">
      <!-- 0.8 -->
      <g style="fill: #484848" transform="translate(23.19445 49.346336) scale(0.1144 -0.1144)">
       <use xlink:href="#Verdana-30"/>
       <use xlink:href="#Verdana-2e" x="63.574219"/>
       <use xlink:href="#Verdana-38" x="99.951172"/>
      </g>
     </g>
    </g>
    <g id="ytick_6">
     <g id="text_13">
      <!-- 1.0 -->
      <g style="fill: #484848" transform="translate(23.19445 19.106306) scale(0.1144 -0.1144)">
       <use xlink:href="#Verdana-31"/>
       <use xlink:href="#Verdana-2e" x="63.574219"/>
       <use xlink:href="#Verdana-30" x="99.951172"/>
      </g>
     </g>
    </g>
    <g id="text_14">
     <!-- Frequency at generation 2 -->
     <g style="fill: #484848" transform="translate(16.61655 173.52) rotate(-90) scale(0.1248 -0.1248)">
      <defs>
       <path id="Verdana-46" d="M 3597 4103 
L 1244 4103 
L 1244 2791 
L 3266 2791 
L 3266 2241 
L 1244 2241 
L 1244 0 
L 625 0 
L 625 4653 
L 3597 4653 
L 3597 4103 
z
" transform="scale(0.015625)"/>
       <path id="Verdana-71" d="M 3409 -1288 
L 2822 -1288 
L 2822 394 
Q 2550 159 2281 45 
Q 2013 -69 1700 -69 
Q 1078 -69 708 411 
Q 338 891 338 1734 
Q 338 2184 467 2529 
Q 597 2875 809 3109 
Q 1016 3338 1294 3463 
Q 1572 3588 1881 3588 
Q 2163 3588 2380 3525 
Q 2597 3463 2822 3341 
L 2859 3491 
L 3409 3491 
L 3409 -1288 
z
M 2822 888 
L 2822 2863 
Q 2578 2972 2390 3015 
Q 2203 3059 1984 3059 
Q 1475 3059 1209 2714 
Q 944 2369 944 1763 
Q 944 1150 1158 820 
Q 1372 491 1831 491 
Q 2088 491 2344 602 
Q 2600 713 2822 888 
z
" transform="scale(0.015625)"/>
       <path id="Verdana-75" d="M 3472 0 
L 2884 0 
L 2884 388 
Q 2588 153 2316 28 
Q 2044 -97 1716 -97 
Q 1166 -97 859 239 
Q 553 575 553 1225 
L 553 3491 
L 1141 3491 
L 1141 1503 
Q 1141 1238 1166 1048 
Q 1191 859 1272 725 
Q 1356 588 1490 525 
Q 1625 463 1881 463 
Q 2109 463 2379 581 
Q 2650 700 2884 884 
L 2884 3491 
L 3472 3491 
L 3472 0 
z
" transform="scale(0.015625)"/>
       <path id="Verdana-63" d="M 3159 219 
Q 2866 78 2602 0 
Q 2338 -78 2041 -78 
Q 1663 -78 1347 33 
Q 1031 144 806 369 
Q 578 594 453 937 
Q 328 1281 328 1741 
Q 328 2597 798 3084 
Q 1269 3572 2041 3572 
Q 2341 3572 2630 3487 
Q 2919 3403 3159 3281 
L 3159 2628 
L 3128 2628 
Q 2859 2838 2573 2950 
Q 2288 3063 2016 3063 
Q 1516 3063 1227 2727 
Q 938 2391 938 1741 
Q 938 1109 1220 770 
Q 1503 431 2016 431 
Q 2194 431 2378 478 
Q 2563 525 2709 600 
Q 2838 666 2950 739 
Q 3063 813 3128 866 
L 3159 866 
L 3159 219 
z
" transform="scale(0.015625)"/>
       <path id="Verdana-67" d="M 3409 397 
Q 3409 -491 3006 -906 
Q 2603 -1322 1766 -1322 
Q 1488 -1322 1223 -1283 
Q 959 -1244 703 -1172 
L 703 -572 
L 734 -572 
Q 878 -628 1190 -711 
Q 1503 -794 1816 -794 
Q 2116 -794 2312 -722 
Q 2509 -650 2619 -522 
Q 2728 -400 2775 -228 
Q 2822 -56 2822 156 
L 2822 475 
Q 2556 263 2314 158 
Q 2072 53 1697 53 
Q 1072 53 705 504 
Q 338 956 338 1778 
Q 338 2228 464 2554 
Q 591 2881 809 3119 
Q 1013 3341 1303 3464 
Q 1594 3588 1881 3588 
Q 2184 3588 2389 3527 
Q 2594 3466 2822 3341 
L 2859 3491 
L 3409 3491 
L 3409 397 
z
M 2822 959 
L 2822 2863 
Q 2588 2969 2386 3014 
Q 2184 3059 1984 3059 
Q 1500 3059 1222 2734 
Q 944 2409 944 1791 
Q 944 1203 1150 900 
Q 1356 597 1834 597 
Q 2091 597 2348 695 
Q 2606 794 2822 959 
z
" transform="scale(0.015625)"/>
      </defs>
      <use xlink:href="#Verdana-46"/>
      <use xlink:href="#Verdana-72" x="57.470703"/>
      <use xlink:href="#Verdana-65" x="100.146484"/>
      <use xlink:href="#Verdana-71" x="159.716797"/>
      <use xlink:href="#Verdana-75" x="222.021484"/>
      <use xlink:href="#Verdana-65" x="285.302734"/>
      <use xlink:href="#Verdana-6e" x="344.873047"/>
      <use xlink:href="#Verdana-63" x="408.154297"/>
      <use xlink:href="#Verdana-79" x="460.253906"/>
      <use xlink:href="#Verdana-20" x="519.433594"/>
      <use xlink:href="#Verdana-61" x="554.589844"/>
      <use xlink:href="#Verdana-74" x="614.648438"/>
      <use xlink:href="#Verdana-20" x="654.052734"/>
      <use xlink:href="#Verdana-67" x="689.208984"/>
      <use xlink:href="#Verdana-65" x="751.513672"/>
      <use xlink:href="#Verdana-6e" x="811.083984"/>
      <use xlink:href="#Verdana-65" x="874.365234"/>
      <use xlink:href="#Verdana-72" x="933.935547"/>
      <use xlink:href="#Verdana-61" x="974.861328"/>
      <use xlink:href="#Verdana-74" x="1034.919922"/>
      <use xlink:href="#Verdana-69" x="1074.324219"/>
      <use xlink:href="#Verdana-6f" x="1101.765625"/>
      <use xlink:href="#Verdana-6e" x="1162.458984"/>
      <use xlink:href="#Verdana-20" x="1225.740234"/>
      <use xlink:href="#Verdana-32" x="1260.896484"/>
     </g>
    </g>
   </g>
   <g id="line2d_2">
    <path d="M 62.884243 165.889548 
L 66.330996 165.585208 
L 70.023945 165.019032 
L 73.963091 164.173711 
L 78.148433 163.038916 
L 82.826169 161.526536 
L 87.996297 159.609985 
L 93.905016 157.176054 
L 101.290914 153.878962 
L 112.615958 148.541559 
L 129.357328 140.677268 
L 138.712799 136.543696 
L 147.083484 133.086665 
L 155.207972 129.973732 
L 163.33246 127.101033 
L 171.949341 124.297016 
L 181.551009 121.415414 
L 194.845626 117.683518 
L 211.094602 113.084383 
L 219.21909 110.549114 
L 225.866399 108.252923 
L 231.775118 105.98551 
L 237.191443 103.674962 
L 242.361572 101.223655 
L 247.039307 98.767517 
L 251.717043 96.055543 
L 256.148582 93.223674 
L 260.333924 90.290891 
L 264.519267 87.084579 
L 268.458412 83.796624 
L 272.397558 80.22682 
L 276.336704 76.355387 
L 280.27585 72.162166 
L 284.214995 67.626638 
L 287.907945 63.045137 
L 291.600894 58.12696 
L 295.293843 52.854376 
L 298.986792 47.209401 
L 302.679741 41.173808 
L 306.37269 34.729135 
L 308.834656 30.196196 
L 308.834656 30.196196 
" clip-path="url(#pa21a95544c)" style="fill: none; stroke: #3d348b; stroke-opacity: 0.333333; stroke-width: 2; stroke-linecap: round"/>
   </g>
   <g id="line2d_3">
    <path d="M 62.884243 165.942461 
L 69.285355 165.738446 
L 75.44027 165.31576 
L 81.348989 164.689318 
L 87.257708 163.836653 
L 92.92023 162.799145 
L 98.582752 161.539255 
L 104.245274 160.051527 
L 109.907796 158.331698 
L 115.570318 156.376759 
L 121.23284 154.184996 
L 126.895362 151.756042 
L 132.557884 149.09091 
L 138.466602 146.060744 
L 144.375321 142.780513 
L 150.530236 139.104377 
L 156.685152 135.172643 
L 163.086263 130.824467 
L 169.733572 126.045188 
L 176.873274 120.634501 
L 184.505368 114.563821 
L 192.876053 107.609899 
L 202.231524 99.540636 
L 214.048962 89.035317 
L 246.054521 60.409996 
L 254.917599 52.879963 
L 262.549694 46.679697 
L 269.443199 41.359381 
L 275.844311 36.695481 
L 281.753029 32.653844 
L 287.415551 29.037764 
L 293.078073 25.688139 
L 298.494399 22.742646 
L 303.910724 20.053694 
L 308.834656 17.829942 
L 308.834656 17.829942 
" clip-path="url(#pa21a95544c)" style="fill: none; stroke: #3d348b; stroke-opacity: 0.666667; stroke-width: 2; stroke-linecap: round"/>
   </g>
   <g id="line2d_4">
    <path d="M 62.884243 161.469606 
L 68.546765 151.865958 
L 74.209287 142.703959 
L 79.625613 134.351254 
L 85.041938 126.397103 
L 90.458263 118.837353 
L 95.874589 111.666976 
L 101.044718 105.180385 
L 106.214847 99.037494 
L 111.384975 93.231938 
L 116.555104 87.756776 
L 121.725233 82.604517 
L 126.895362 77.76715 
L 132.065491 73.236173 
L 137.235619 69.002616 
L 142.405748 65.057065 
L 147.575877 61.389684 
L 152.746006 57.990238 
L 157.916135 54.848108 
L 163.33246 51.820374 
L 168.748785 49.049964 
L 174.165111 46.523454 
L 179.827633 44.127901 
L 185.736351 41.878812 
L 191.64507 39.867073 
L 197.799985 38.003073 
L 204.201097 36.291474 
L 211.094602 34.677919 
L 218.480501 33.17709 
L 226.851185 31.710375 
L 236.69905 30.223472 
L 250.732256 28.357658 
L 269.935592 25.782187 
L 279.53726 24.262104 
L 287.661748 22.75276 
L 294.80145 21.204613 
L 301.448758 19.537118 
L 307.603673 17.767434 
L 308.834656 17.384896 
L 308.834656 17.384896 
" clip-path="url(#pa21a95544c)" style="fill: none; stroke: #3d348b; stroke-width: 2; stroke-linecap: round"/>
   </g>
   <g id="line2d_5">
    <path d="M 62.884243 165.944938 
L 69.777748 165.752961 
L 76.671253 165.340839 
L 83.564758 164.708681 
L 90.458263 163.856599 
L 97.351769 162.784702 
L 104.245274 161.493103 
L 111.138779 159.981911 
L 118.27848 158.185368 
L 125.418182 156.153509 
L 132.557884 153.886455 
L 139.697585 151.38433 
L 146.837287 148.647254 
L 153.976989 145.675351 
L 161.116691 142.468743 
L 168.502589 138.904708 
L 175.888487 135.089767 
L 183.274385 131.024056 
L 190.660284 126.70771 
L 198.292379 121.984323 
L 205.924473 116.993605 
L 213.556568 111.735705 
L 221.188663 106.210772 
L 229.066955 100.22768 
L 236.945246 93.960369 
L 244.823538 87.409003 
L 252.701829 80.573744 
L 260.826317 73.227717 
L 268.950806 65.580127 
L 277.075294 57.631154 
L 285.445978 49.126269 
L 293.816663 40.30184 
L 302.187348 31.158063 
L 308.834656 23.669462 
L 308.834656 23.669462 
" clip-path="url(#pa21a95544c)" style="fill: none; stroke-dasharray: 2,3.3; stroke-dashoffset: 0; stroke: #e6af2e; stroke-width: 2"/>
   </g>
   <g id="line2d_6">
    <path d="M 62.884243 165.96 
L 83.703244 165.845227 
L 95.889976 165.555584 
L 106.045586 165.100669 
L 115.185635 164.475341 
L 123.564014 163.685918 
L 131.434612 162.726759 
L 139.051319 161.572537 
L 146.160246 160.273431 
L 153.015283 158.799304 
L 159.61643 157.157885 
L 166.217577 155.283046 
L 172.564833 153.245745 
L 178.658199 151.060598 
L 184.751565 148.63842 
L 190.591041 146.08345 
L 196.430517 143.288838 
L 202.269993 140.243842 
L 207.855578 137.08704 
L 213.441164 133.681923 
L 219.026749 130.01909 
L 224.612335 126.089141 
L 230.19792 121.882674 
L 235.783506 117.390287 
L 241.369092 112.602581 
L 246.954677 107.510153 
L 252.540263 102.103603 
L 258.125848 96.373529 
L 263.711434 90.310531 
L 269.29702 83.905206 
L 274.882605 77.148154 
L 280.468191 70.029975 
L 286.053776 62.541266 
L 291.639362 54.672626 
L 297.224948 46.414655 
L 302.810533 37.757951 
L 308.396119 28.693113 
L 313.981704 19.21074 
L 316.520607 14.76 
L 316.520607 14.76 
" clip-path="url(#pa21a95544c)" style="fill: none; stroke-dasharray: 7.4,3.2; stroke-dashoffset: 0; stroke: #c7e9c0; stroke-width: 2"/>
   </g>
   <g id="line2d_7">
    <path d="M 62.884243 165.915094 
L 66.946487 165.662135 
L 71.008731 165.192893 
L 75.324866 164.465431 
L 79.641 163.510645 
L 84.211025 162.261563 
L 88.781049 160.777651 
L 93.604964 158.967918 
L 98.428879 156.920124 
L 103.506684 154.520681 
L 108.838379 151.747274 
L 114.423965 148.580273 
L 120.263441 145.00329 
L 126.356807 141.003761 
L 132.704063 136.573554 
L 139.5591 131.517721 
L 146.921917 125.812391 
L 155.046405 119.236877 
L 164.440345 111.341389 
L 176.119296 101.217092 
L 217.503408 65.057493 
L 226.643457 57.528074 
L 234.767945 51.121922 
L 242.130762 45.599895 
L 248.985799 40.740209 
L 255.333056 36.513531 
L 261.172531 32.881221 
L 266.758117 29.657008 
L 272.089812 26.825076 
L 277.167617 24.36634 
L 282.245423 22.154496 
L 287.069337 20.294795 
L 291.639362 18.761246 
L 296.209387 17.460289 
L 300.525521 16.454459 
L 304.841655 15.673956 
L 309.157789 15.127458 
L 313.220034 14.834637 
L 316.520607 14.76 
L 316.520607 14.76 
" clip-path="url(#pa21a95544c)" style="fill: none; stroke-dasharray: 7.4,3.2; stroke-dashoffset: 0; stroke: #73c476; stroke-width: 2"/>
   </g>
   <g id="line2d_8">
    <path d="M 62.884243 161.469356 
L 68.723719 151.567781 
L 74.309305 142.523402 
L 79.89489 133.886692 
L 85.480476 125.648248 
L 91.066061 117.798669 
L 96.651647 110.328555 
L 102.237233 103.228504 
L 107.822818 96.489115 
L 113.408404 90.100987 
L 118.993989 84.054719 
L 124.579575 78.340909 
L 130.16516 72.950156 
L 135.750746 67.87306 
L 141.336332 63.100219 
L 146.921917 58.622232 
L 152.507503 54.429698 
L 158.093088 50.513216 
L 163.678674 46.863384 
L 169.26426 43.470802 
L 175.103735 40.188862 
L 180.943211 37.167072 
L 186.782687 34.39469 
L 192.622163 31.860973 
L 198.715529 29.459931 
L 204.808895 27.294857 
L 211.156151 25.277333 
L 217.503408 23.488813 
L 224.104554 21.856848 
L 230.959591 20.39185 
L 238.068518 19.10147 
L 245.431336 17.990245 
L 253.301934 17.031744 
L 261.680312 16.242937 
L 270.566471 15.632564 
L 280.468191 15.181334 
L 291.893252 14.8943 
L 306.364997 14.769418 
L 316.520607 14.76 
L 316.520607 14.76 
" clip-path="url(#pa21a95544c)" style="fill: none; stroke-dasharray: 7.4,3.2; stroke-dashoffset: 0; stroke: #228a44; stroke-width: 2"/>
   </g>
  </g>
 </g>
 <defs>
  <clipPath id="pa21a95544c">
   <rect x="50.202425" y="7.2" width="279" height="166.32"/>
  </clipPath>
 </defs>
</svg>
